<svg xmlns="http://www.w3.org/2000/svg" width="182" height="36" viewBox="0 0 182 36" role="img" aria-labelledby="title desc">
  <title id="title">JobApps pixel wordmark</title>
  <desc id="desc">A minimal pixel-art JOBAPPS wordmark.</desc>

  <path fill="#19322f" d="M15 4h4v4h-4zM19 4h4v4h-4zM23 4h4v4h-4zM27 4h4v4h-4zM31 4h4v4h-4zM23 8h4v4h-4zM23 12h4v4h-4zM23 16h4v4h-4zM23 20h4v4h-4zM15 24h4v4h-4zM23 24h4v4h-4zM19 28h4v4h-4zM23 28h4v4h-4zM41 4h4v4h-4zM45 4h4v4h-4zM49 4h4v4h-4zM37 8h4v4h-4zM53 8h4v4h-4zM37 12h4v4h-4zM53 12h4v4h-4zM37 16h4v4h-4zM53 16h4v4h-4zM37 20h4v4h-4zM53 20h4v4h-4zM37 24h4v4h-4zM53 24h4v4h-4zM41 28h4v4h-4zM45 28h4v4h-4zM49 28h4v4h-4zM59 4h4v4h-4zM63 4h4v4h-4zM67 4h4v4h-4zM71 4h4v4h-4zM59 8h4v4h-4zM75 8h4v4h-4zM59 12h4v4h-4zM75 12h4v4h-4zM59 16h4v4h-4zM63 16h4v4h-4zM67 16h4v4h-4zM71 16h4v4h-4zM59 20h4v4h-4zM75 20h4v4h-4zM59 24h4v4h-4zM75 24h4v4h-4zM59 28h4v4h-4zM63 28h4v4h-4zM67 28h4v4h-4zM71 28h4v4h-4zM85 4h4v4h-4zM89 4h4v4h-4zM93 4h4v4h-4zM81 8h4v4h-4zM97 8h4v4h-4zM81 12h4v4h-4zM97 12h4v4h-4zM81 16h4v4h-4zM85 16h4v4h-4zM89 16h4v4h-4zM93 16h4v4h-4zM97 16h4v4h-4zM81 20h4v4h-4zM97 20h4v4h-4zM81 24h4v4h-4zM97 24h4v4h-4zM81 28h4v4h-4zM97 28h4v4h-4zM103 4h4v4h-4zM107 4h4v4h-4zM111 4h4v4h-4zM115 4h4v4h-4zM103 8h4v4h-4zM119 8h4v4h-4zM103 12h4v4h-4zM119 12h4v4h-4zM103 16h4v4h-4zM107 16h4v4h-4zM111 16h4v4h-4zM115 16h4v4h-4zM103 20h4v4h-4zM103 24h4v4h-4zM103 28h4v4h-4zM125 4h4v4h-4zM129 4h4v4h-4zM133 4h4v4h-4zM137 4h4v4h-4zM125 8h4v4h-4zM141 8h4v4h-4zM125 12h4v4h-4zM141 12h4v4h-4zM125 16h4v4h-4zM129 16h4v4h-4zM133 16h4v4h-4zM137 16h4v4h-4zM125 20h4v4h-4zM125 24h4v4h-4zM125 28h4v4h-4zM151 4h4v4h-4zM155 4h4v4h-4zM159 4h4v4h-4zM163 4h4v4h-4zM147 8h4v4h-4zM147 12h4v4h-4zM151 16h4v4h-4zM155 16h4v4h-4zM159 16h4v4h-4zM163 20h4v4h-4zM163 24h4v4h-4zM147 28h4v4h-4zM151 28h4v4h-4zM155 28h4v4h-4zM159 28h4v4h-4z"/>
</svg>
